<?xml version="1.0" encoding="UTF-8"?><svg xmlns="http://www.w3.org/2000/svg" xmlns:xlink="http://www.w3.org/1999/xlink" fill-opacity="1" color-rendering="auto" color-interpolation="auto" text-rendering="auto" stroke="black" stroke-linecap="square" width="1848" stroke-miterlimit="10" shape-rendering="auto" stroke-opacity="1" fill="black" stroke-dasharray="none" font-weight="normal" stroke-width="1" height="1058" font-family="'Dialog'" font-style="normal" stroke-linejoin="miter" font-size="12px" stroke-dashoffset="0" image-rendering="auto">
  <!--Generated by ySVG 2.5-->
  <defs id="genericDefs"/>
  <g>
    <defs id="defs1">
      <linearGradient x1="427.5631" gradientUnits="userSpaceOnUse" x2="543.9213" y1="-18.9229" y2="24.5079" id="linearGradient1" spreadMethod="reflect">
        <stop stop-opacity="1" stop-color="rgb(232,238,247)" offset="0%"/>
        <stop stop-opacity="1" stop-color="rgb(183,201,227)" offset="100%"/>
      </linearGradient>
      <linearGradient x1="421.312" gradientUnits="userSpaceOnUse" x2="550.1724" y1="164.4307" y2="256.9307" id="linearGradient2" spreadMethod="reflect">
        <stop stop-opacity="1" stop-color="rgb(232,238,247)" offset="0%"/>
        <stop stop-opacity="1" stop-color="rgb(183,201,227)" offset="100%"/>
      </linearGradient>
      <linearGradient x1="423.7686" gradientUnits="userSpaceOnUse" x2="547.7158" y1="303.9932" y2="396.4932" id="linearGradient3" spreadMethod="reflect">
        <stop stop-opacity="1" stop-color="rgb(232,238,247)" offset="0%"/>
        <stop stop-opacity="1" stop-color="rgb(183,201,227)" offset="100%"/>
      </linearGradient>
      <linearGradient x1="415.4026" gradientUnits="userSpaceOnUse" x2="556.0817" y1="435.0063" y2="527.5063" id="linearGradient4" spreadMethod="reflect">
        <stop stop-opacity="1" stop-color="rgb(232,238,247)" offset="0%"/>
        <stop stop-opacity="1" stop-color="rgb(183,201,227)" offset="100%"/>
      </linearGradient>
      <linearGradient x1="408.0304" gradientUnits="userSpaceOnUse" x2="563.454" y1="562.4001" y2="667.7001" id="linearGradient5" spreadMethod="reflect">
        <stop stop-opacity="1" stop-color="rgb(232,238,247)" offset="0%"/>
        <stop stop-opacity="1" stop-color="rgb(183,201,227)" offset="100%"/>
      </linearGradient>
      <linearGradient x1="430.0186" gradientUnits="userSpaceOnUse" x2="541.4658" y1="702.5939" y2="752.7677" id="linearGradient6" spreadMethod="reflect">
        <stop stop-opacity="1" stop-color="rgb(232,238,247)" offset="0%"/>
        <stop stop-opacity="1" stop-color="rgb(183,201,227)" offset="100%"/>
      </linearGradient>
      <linearGradient x1="646.5522" gradientUnits="userSpaceOnUse" x2="748.5259" y1="703.8684" y2="754.0422" id="linearGradient7" spreadMethod="reflect">
        <stop stop-opacity="1" stop-color="rgb(232,238,247)" offset="0%"/>
        <stop stop-opacity="1" stop-color="rgb(183,201,227)" offset="100%"/>
      </linearGradient>
      <linearGradient x1="806.2272" gradientUnits="userSpaceOnUse" x2="946.9063" y1="731.6308" y2="794.2047" id="linearGradient8" spreadMethod="reflect">
        <stop stop-opacity="1" stop-color="rgb(232,238,247)" offset="0%"/>
        <stop stop-opacity="1" stop-color="rgb(183,201,227)" offset="100%"/>
      </linearGradient>
      <linearGradient x1="1482.6207" gradientUnits="userSpaceOnUse" x2="1624.8857" y1="164.4307" y2="256.9307" id="linearGradient9" spreadMethod="reflect">
        <stop stop-opacity="1" stop-color="rgb(232,238,247)" offset="0%"/>
        <stop stop-opacity="1" stop-color="rgb(183,201,227)" offset="100%"/>
      </linearGradient>
      <linearGradient x1="1485.6122" gradientUnits="userSpaceOnUse" x2="1621.8943" y1="303.9932" y2="396.4932" id="linearGradient10" spreadMethod="reflect">
        <stop stop-opacity="1" stop-color="rgb(232,238,247)" offset="0%"/>
        <stop stop-opacity="1" stop-color="rgb(183,201,227)" offset="100%"/>
      </linearGradient>
      <linearGradient x1="1489.323" gradientUnits="userSpaceOnUse" x2="1618.1833" y1="426.4932" y2="518.9932" id="linearGradient11" spreadMethod="reflect">
        <stop stop-opacity="1" stop-color="rgb(232,238,247)" offset="0%"/>
        <stop stop-opacity="1" stop-color="rgb(183,201,227)" offset="100%"/>
      </linearGradient>
      <linearGradient x1="1489.323" gradientUnits="userSpaceOnUse" x2="1618.1833" y1="548.9932" y2="641.4932" id="linearGradient12" spreadMethod="reflect">
        <stop stop-opacity="1" stop-color="rgb(232,238,247)" offset="0%"/>
        <stop stop-opacity="1" stop-color="rgb(183,201,227)" offset="100%"/>
      </linearGradient>
      <linearGradient x1="423.7686" gradientUnits="userSpaceOnUse" x2="547.7158" y1="68.4394" y2="117.3682" id="linearGradient13" spreadMethod="reflect">
        <stop stop-opacity="1" stop-color="rgb(232,238,247)" offset="0%"/>
        <stop stop-opacity="1" stop-color="rgb(183,201,227)" offset="100%"/>
      </linearGradient>
      <linearGradient x1="1504.2919" gradientUnits="userSpaceOnUse" x2="1603.2146" y1="687.4112" y2="727.4112" id="linearGradient14" spreadMethod="reflect">
        <stop stop-opacity="1" stop-color="rgb(232,238,247)" offset="0%"/>
        <stop stop-opacity="1" stop-color="rgb(183,201,227)" offset="100%"/>
      </linearGradient>
      <linearGradient x1="1660.6833" gradientUnits="userSpaceOnUse" x2="1782.6099" y1="659.4248" y2="719.5987" id="linearGradient15" spreadMethod="reflect">
        <stop stop-opacity="1" stop-color="rgb(232,238,247)" offset="0%"/>
        <stop stop-opacity="1" stop-color="rgb(183,201,227)" offset="100%"/>
      </linearGradient>
      <linearGradient x1="1753.053" gradientUnits="userSpaceOnUse" x2="1860.5743" y1="190.6807" y2="230.6807" id="linearGradient16" spreadMethod="reflect">
        <stop stop-opacity="1" stop-color="rgb(232,238,247)" offset="0%"/>
        <stop stop-opacity="1" stop-color="rgb(183,201,227)" offset="100%"/>
      </linearGradient>
      <linearGradient x1="1504.2919" gradientUnits="userSpaceOnUse" x2="1603.2146" y1="757.4112" y2="797.4112" id="linearGradient17" spreadMethod="reflect">
        <stop stop-opacity="1" stop-color="rgb(232,238,247)" offset="0%"/>
        <stop stop-opacity="1" stop-color="rgb(183,201,227)" offset="100%"/>
      </linearGradient>
      <linearGradient x1="1504.2919" gradientUnits="userSpaceOnUse" x2="1603.2146" y1="827.4112" y2="867.4112" id="linearGradient18" spreadMethod="reflect">
        <stop stop-opacity="1" stop-color="rgb(232,238,247)" offset="0%"/>
        <stop stop-opacity="1" stop-color="rgb(183,201,227)" offset="100%"/>
      </linearGradient>
      <linearGradient x1="1334.1404" gradientUnits="userSpaceOnUse" x2="1433.063" y1="562.8682" y2="602.8682" id="linearGradient19" spreadMethod="reflect">
        <stop stop-opacity="1" stop-color="rgb(232,238,247)" offset="0%"/>
        <stop stop-opacity="1" stop-color="rgb(183,201,227)" offset="100%"/>
      </linearGradient>
      <linearGradient x1="627.1995" gradientUnits="userSpaceOnUse" x2="767.8786" y1="558.7808" y2="664.0808" id="linearGradient20" spreadMethod="reflect">
        <stop stop-opacity="1" stop-color="rgb(232,238,247)" offset="0%"/>
        <stop stop-opacity="1" stop-color="rgb(183,201,227)" offset="100%"/>
      </linearGradient>
      <linearGradient x1="646.5522" gradientUnits="userSpaceOnUse" x2="748.5259" y1="793.8298" y2="844.0037" id="linearGradient21" spreadMethod="reflect">
        <stop stop-opacity="1" stop-color="rgb(232,238,247)" offset="0%"/>
        <stop stop-opacity="1" stop-color="rgb(183,201,227)" offset="100%"/>
      </linearGradient>
      <linearGradient x1="241.8396" gradientUnits="userSpaceOnUse" x2="340.7623" y1="452.7432" y2="492.7432" id="linearGradient22" spreadMethod="reflect">
        <stop stop-opacity="1" stop-color="rgb(232,238,247)" offset="0%"/>
        <stop stop-opacity="1" stop-color="rgb(183,201,227)" offset="100%"/>
      </linearGradient>
      <linearGradient x1="430.0186" gradientUnits="userSpaceOnUse" x2="541.4658" y1="784.0422" y2="829.8297" id="linearGradient23" spreadMethod="reflect">
        <stop stop-opacity="1" stop-color="rgb(232,238,247)" offset="0%"/>
        <stop stop-opacity="1" stop-color="rgb(183,201,227)" offset="100%"/>
      </linearGradient>
      <linearGradient x1="430.0186" gradientUnits="userSpaceOnUse" x2="541.4658" y1="859.8297" y2="905.6172" id="linearGradient24" spreadMethod="reflect">
        <stop stop-opacity="1" stop-color="rgb(232,238,247)" offset="0%"/>
        <stop stop-opacity="1" stop-color="rgb(183,201,227)" offset="100%"/>
      </linearGradient>
      <linearGradient x1="1205.2177" gradientUnits="userSpaceOnUse" x2="1304.1404" y1="562.8682" y2="602.8682" id="linearGradient25" spreadMethod="reflect">
        <stop stop-opacity="1" stop-color="rgb(232,238,247)" offset="0%"/>
        <stop stop-opacity="1" stop-color="rgb(183,201,227)" offset="100%"/>
      </linearGradient>
      <linearGradient x1="90.2492" gradientUnits="userSpaceOnUse" x2="189.1719" y1="452.7432" y2="492.7432" id="linearGradient26" spreadMethod="reflect">
        <stop stop-opacity="1" stop-color="rgb(232,238,247)" offset="0%"/>
        <stop stop-opacity="1" stop-color="rgb(183,201,227)" offset="100%"/>
      </linearGradient>
      <clipPath clipPathUnits="userSpaceOnUse" id="clipPath1">
        <path d="M0 0 L1848 0 L1848 1058 L0 1058 L0 0 Z"/>
      </clipPath>
      <clipPath clipPathUnits="userSpaceOnUse" id="clipPath2">
        <path d="M75 -34 L1923 -34 L1923 1024 L75 1024 L75 -34 Z"/>
      </clipPath>
    </defs>
    <g fill="white" text-rendering="geometricPrecision" shape-rendering="geometricPrecision" transform="translate(-75,34)" stroke="white">
      <rect x="75" width="1848" height="1058" y="-34" clip-path="url(#clipPath2)" stroke="none"/>
    </g>
    <g fill="url(#linearGradient1)" text-rendering="geometricPrecision" shape-rendering="geometricPrecision" transform="matrix(1,0,0,1,-75,34)" stroke="url(#linearGradient1)">
      <ellipse rx="58.1791" ry="21.7154" clip-path="url(#clipPath2)" cx="485.7422" cy="2.7925" stroke="none"/>
    </g>
    <g text-rendering="geometricPrecision" stroke-miterlimit="1.45" shape-rendering="geometricPrecision" transform="matrix(1,0,0,1,-75,34)" stroke-linecap="butt">
      <ellipse rx="58.1791" fill="none" ry="21.7154" clip-path="url(#clipPath2)" cx="485.7422" cy="2.7925"/>
      <text x="463.0576" xml:space="preserve" y="0.1558" clip-path="url(#clipPath2)" font-family="sans-serif" stroke="none">Round 3</text>
      <text x="473.0713" xml:space="preserve" y="14.8569" clip-path="url(#clipPath2)" font-family="sans-serif" stroke="none">Start</text>
    </g>
    <g fill="url(#linearGradient2)" text-rendering="geometricPrecision" shape-rendering="geometricPrecision" transform="matrix(1,0,0,1,-75,34)" stroke="url(#linearGradient2)">
      <path d="M485.7422 164.4307 L550.1724 210.6807 L485.7422 256.9307 L421.312 210.6807 Z" stroke="none" clip-path="url(#clipPath2)"/>
    </g>
    <g text-rendering="geometricPrecision" stroke-miterlimit="1.45" shape-rendering="geometricPrecision" transform="matrix(1,0,0,1,-75,34)" stroke-linecap="butt">
      <path fill="none" d="M485.7422 164.4307 L550.1724 210.6807 L485.7422 256.9307 L421.312 210.6807 Z" clip-path="url(#clipPath2)"/>
      <text x="476.4053" xml:space="preserve" y="208.044" clip-path="url(#clipPath2)" font-family="sans-serif" stroke="none">Not</text>
      <text x="439.3711" xml:space="preserve" y="222.7451" clip-path="url(#clipPath2)" font-family="sans-serif" stroke="none">noAllocated.end?</text>
    </g>
    <g fill="url(#linearGradient3)" text-rendering="geometricPrecision" shape-rendering="geometricPrecision" transform="matrix(1,0,0,1,-75,34)" stroke="url(#linearGradient3)">
      <path d="M485.7422 303.9932 L547.7158 350.2432 L485.7422 396.4932 L423.7686 350.2432 Z" stroke="none" clip-path="url(#clipPath2)"/>
    </g>
    <g text-rendering="geometricPrecision" stroke-miterlimit="1.45" shape-rendering="geometricPrecision" transform="matrix(1,0,0,1,-75,34)" stroke-linecap="butt">
      <path fill="none" d="M485.7422 303.9932 L547.7158 350.2432 L485.7422 396.4932 L423.7686 350.2432 Z" clip-path="url(#clipPath2)"/>
      <text x="476.4053" xml:space="preserve" y="347.6065" clip-path="url(#clipPath2)" font-family="sans-serif" stroke="none">Not</text>
      <text x="448.7256" xml:space="preserve" y="362.3076" clip-path="url(#clipPath2)" font-family="sans-serif" stroke="none">sports.end()? </text>
    </g>
    <g fill="url(#linearGradient4)" text-rendering="geometricPrecision" shape-rendering="geometricPrecision" transform="matrix(1,0,0,1,-75,34)" stroke="url(#linearGradient4)">
      <path d="M485.7422 435.0063 L556.0817 481.2563 L485.7422 527.5063 L415.4026 481.2563 Z" stroke="none" clip-path="url(#clipPath2)"/>
    </g>
    <g text-rendering="geometricPrecision" stroke-miterlimit="1.45" shape-rendering="geometricPrecision" transform="matrix(1,0,0,1,-75,34)" stroke-linecap="butt">
      <path fill="none" d="M485.7422 435.0063 L556.0817 481.2563 L485.7422 527.5063 L415.4026 481.2563 Z" clip-path="url(#clipPath2)"/>
      <text x="436.7021" xml:space="preserve" y="485.9701" clip-path="url(#clipPath2)" font-family="sans-serif" stroke="none">2nd choice found?</text>
    </g>
    <g fill="url(#linearGradient5)" text-rendering="geometricPrecision" shape-rendering="geometricPrecision" transform="matrix(1,0,0,1,-75,34)" stroke="url(#linearGradient5)">
      <path d="M485.7422 562.4001 L563.454 615.05 L485.7422 667.7001 L408.0304 615.05 Z" stroke="none" clip-path="url(#clipPath2)"/>
    </g>
    <g text-rendering="geometricPrecision" stroke-miterlimit="1.45" shape-rendering="geometricPrecision" transform="matrix(1,0,0,1,-75,34)" stroke-linecap="butt">
      <path fill="none" d="M485.7422 562.4001 L563.454 615.05 L485.7422 667.7001 L408.0304 615.05 Z" clip-path="url(#clipPath2)"/>
      <text x="435.7178" xml:space="preserve" y="605.0627" clip-path="url(#clipPath2)" font-family="sans-serif" stroke="none">sport has vacancy </text>
      <text x="477.7383" xml:space="preserve" y="619.7639" clip-path="url(#clipPath2)" font-family="sans-serif" stroke="none">&amp;&amp;</text>
      <text x="444.7207" xml:space="preserve" y="634.4651" clip-path="url(#clipPath2)" font-family="sans-serif" stroke="none">got win record?</text>
    </g>
    <g fill="url(#linearGradient6)" text-rendering="geometricPrecision" shape-rendering="geometricPrecision" transform="matrix(1,0,0,1,-75,34)" stroke="url(#linearGradient6)">
      <path d="M430.0186 702.5939 L541.4658 702.5939 L541.4658 752.7677 L430.0186 752.7677 Z" stroke="none" clip-path="url(#clipPath2)"/>
    </g>
    <g text-rendering="geometricPrecision" stroke-miterlimit="1.45" shape-rendering="geometricPrecision" transform="matrix(1,0,0,1,-75,34)" stroke-linecap="butt">
      <path fill="none" d="M430.0186 702.5939 L541.4658 702.5939 L541.4658 752.7677 L430.0186 752.7677 Z" clip-path="url(#clipPath2)"/>
      <text x="441.0527" xml:space="preserve" y="725.0441" clip-path="url(#clipPath2)" font-family="sans-serif" stroke="none">Allocate sport to </text>
      <text x="448.0547" xml:space="preserve" y="739.7452" clip-path="url(#clipPath2)" font-family="sans-serif" stroke="none">student vector</text>
    </g>
    <g fill="url(#linearGradient7)" text-rendering="geometricPrecision" shape-rendering="geometricPrecision" transform="matrix(1,0,0,1,-75,34)" stroke="url(#linearGradient7)">
      <path d="M646.5522 703.8684 L748.5259 703.8684 L748.5259 754.0422 L646.5522 754.0422 Z" stroke="none" clip-path="url(#clipPath2)"/>
    </g>
    <g text-rendering="geometricPrecision" stroke-miterlimit="1.45" shape-rendering="geometricPrecision" transform="matrix(1,0,0,1,-75,34)" stroke-linecap="butt">
      <path fill="none" d="M646.5522 703.8684 L748.5259 703.8684 L748.5259 754.0422 L646.5522 754.0422 Z" clip-path="url(#clipPath2)"/>
      <text x="657.1768" xml:space="preserve" y="726.3186" clip-path="url(#clipPath2)" font-family="sans-serif" stroke="none">Add student to </text>
      <text x="662.5264" xml:space="preserve" y="741.0198" clip-path="url(#clipPath2)" font-family="sans-serif" stroke="none">noWin vector</text>
    </g>
    <g fill="url(#linearGradient8)" text-rendering="geometricPrecision" shape-rendering="geometricPrecision" transform="matrix(1,0,0,1,-75,34)" stroke="url(#linearGradient8)">
      <path d="M806.2272 731.6308 L946.9063 731.6308 L946.9063 794.2047 L806.2272 794.2047 Z" stroke="none" clip-path="url(#clipPath2)"/>
    </g>
    <g text-rendering="geometricPrecision" stroke-miterlimit="1.45" shape-rendering="geometricPrecision" transform="matrix(1,0,0,1,-75,34)" stroke-linecap="butt">
      <path fill="none" d="M806.2272 731.6308 L946.9063 731.6308 L946.9063 794.2047 L806.2272 794.2047 Z" clip-path="url(#clipPath2)"/>
      <text x="836.2045" xml:space="preserve" y="752.9304" clip-path="url(#clipPath2)" font-family="sans-serif" stroke="none">Add student to </text>
      <text x="831.5375" xml:space="preserve" y="767.6316" clip-path="url(#clipPath2)" font-family="sans-serif" stroke="none">noAllocated2 for </text>
      <text x="851.2133" xml:space="preserve" y="782.3328" clip-path="url(#clipPath2)" font-family="sans-serif" stroke="none">4th round</text>
    </g>
    <g fill="url(#linearGradient9)" text-rendering="geometricPrecision" shape-rendering="geometricPrecision" transform="matrix(1,0,0,1,-75,34)" stroke="url(#linearGradient9)">
      <path d="M1553.7532 164.4307 L1624.8857 210.6807 L1553.7532 256.9307 L1482.6207 210.6807 Z" stroke="none" clip-path="url(#clipPath2)"/>
    </g>
    <g text-rendering="geometricPrecision" stroke-miterlimit="1.45" shape-rendering="geometricPrecision" transform="matrix(1,0,0,1,-75,34)" stroke-linecap="butt">
      <path fill="none" d="M1553.7532 164.4307 L1624.8857 210.6807 L1553.7532 256.9307 L1482.6207 210.6807 Z" clip-path="url(#clipPath2)"/>
      <text x="1544.4163" xml:space="preserve" y="208.044" clip-path="url(#clipPath2)" font-family="sans-serif" stroke="none">Not</text>
      <text x="1507.3821" xml:space="preserve" y="222.7451" clip-path="url(#clipPath2)" font-family="sans-serif" stroke="none">noAllocated.end?</text>
    </g>
    <g fill="url(#linearGradient10)" text-rendering="geometricPrecision" shape-rendering="geometricPrecision" transform="matrix(1,0,0,1,-75,34)" stroke="url(#linearGradient10)">
      <path d="M1553.7532 303.9932 L1621.8943 350.2432 L1553.7532 396.4932 L1485.6122 350.2432 Z" stroke="none" clip-path="url(#clipPath2)"/>
    </g>
    <g text-rendering="geometricPrecision" stroke-miterlimit="1.45" shape-rendering="geometricPrecision" transform="matrix(1,0,0,1,-75,34)" stroke-linecap="butt">
      <path fill="none" d="M1553.7532 303.9932 L1621.8943 350.2432 L1553.7532 396.4932 L1485.6122 350.2432 Z" clip-path="url(#clipPath2)"/>
      <text x="1542.7493" xml:space="preserve" y="347.6065" clip-path="url(#clipPath2)" font-family="sans-serif" stroke="none">Not </text>
      <text x="1516.7366" xml:space="preserve" y="362.3076" clip-path="url(#clipPath2)" font-family="sans-serif" stroke="none">sports.end()? </text>
    </g>
    <g fill="url(#linearGradient11)" text-rendering="geometricPrecision" shape-rendering="geometricPrecision" transform="matrix(1,0,0,1,-75,34)" stroke="url(#linearGradient11)">
      <path d="M1553.7532 426.4932 L1618.1833 472.7432 L1553.7532 518.9932 L1489.323 472.7432 Z" stroke="none" clip-path="url(#clipPath2)"/>
    </g>
    <g text-rendering="geometricPrecision" stroke-miterlimit="1.45" shape-rendering="geometricPrecision" transform="matrix(1,0,0,1,-75,34)" stroke-linecap="butt">
      <path fill="none" d="M1553.7532 426.4932 L1618.1833 472.7432 L1553.7532 518.9932 L1489.323 472.7432 Z" clip-path="url(#clipPath2)"/>
      <text x="1524.7317" xml:space="preserve" y="470.1065" clip-path="url(#clipPath2)" font-family="sans-serif" stroke="none">2nd choice</text>
      <text x="1533.7346" xml:space="preserve" y="484.8076" clip-path="url(#clipPath2)" font-family="sans-serif" stroke="none"> found?</text>
    </g>
    <g fill="url(#linearGradient12)" text-rendering="geometricPrecision" shape-rendering="geometricPrecision" transform="matrix(1,0,0,1,-75,34)" stroke="url(#linearGradient12)">
      <path d="M1553.7532 548.9932 L1618.1833 595.2432 L1553.7532 641.4932 L1489.323 595.2432 Z" stroke="none" clip-path="url(#clipPath2)"/>
    </g>
    <g text-rendering="geometricPrecision" stroke-miterlimit="1.45" shape-rendering="geometricPrecision" transform="matrix(1,0,0,1,-75,34)" stroke-linecap="butt">
      <path fill="none" d="M1553.7532 548.9932 L1618.1833 595.2432 L1553.7532 641.4932 L1489.323 595.2432 Z" clip-path="url(#clipPath2)"/>
      <text x="1503.0549" xml:space="preserve" y="592.6064" clip-path="url(#clipPath2)" font-family="sans-serif" stroke="none">chosen sport have </text>
      <text x="1528.4055" xml:space="preserve" y="607.3076" clip-path="url(#clipPath2)" font-family="sans-serif" stroke="none">vacancy?</text>
    </g>
    <g fill="url(#linearGradient13)" text-rendering="geometricPrecision" shape-rendering="geometricPrecision" transform="matrix(1,0,0,1,-75,34)" stroke="url(#linearGradient13)">
      <path d="M423.7686 68.4394 L547.7158 68.4394 L547.7158 117.3682 L423.7686 117.3682 Z" stroke="none" clip-path="url(#clipPath2)"/>
    </g>
    <g text-rendering="geometricPrecision" stroke-miterlimit="1.45" shape-rendering="geometricPrecision" transform="matrix(1,0,0,1,-75,34)" stroke-linecap="butt">
      <path fill="none" d="M423.7686 68.4394 L547.7158 68.4394 L547.7158 117.3682 L423.7686 117.3682 Z" clip-path="url(#clipPath2)"/>
      <text x="434.7246" xml:space="preserve" y="97.6177" clip-path="url(#clipPath2)" font-family="sans-serif" stroke="none">Clear noWin vector</text>
    </g>
    <g fill="url(#linearGradient14)" text-rendering="geometricPrecision" shape-rendering="geometricPrecision" transform="matrix(1,0,0,1,-75,34)" stroke="url(#linearGradient14)">
      <path d="M1504.2919 687.4112 L1603.2146 687.4112 L1603.2146 727.4112 L1504.2919 727.4112 Z" stroke="none" clip-path="url(#clipPath2)"/>
    </g>
    <g text-rendering="geometricPrecision" stroke-miterlimit="1.45" shape-rendering="geometricPrecision" transform="matrix(1,0,0,1,-75,34)" stroke-linecap="butt">
      <path fill="none" d="M1504.2919 687.4112 L1603.2146 687.4112 L1603.2146 727.4112 L1504.2919 727.4112 Z" clip-path="url(#clipPath2)"/>
      <text x="1517.4016" xml:space="preserve" y="704.7745" clip-path="url(#clipPath2)" font-family="sans-serif" stroke="none">Allocate sport</text>
      <text x="1524.0667" xml:space="preserve" y="719.4756" clip-path="url(#clipPath2)" font-family="sans-serif" stroke="none"> to student </text>
    </g>
    <g fill="url(#linearGradient15)" text-rendering="geometricPrecision" shape-rendering="geometricPrecision" transform="matrix(1,0,0,1,-75,34)" stroke="url(#linearGradient15)">
      <path d="M1660.6833 659.4248 L1782.6099 659.4248 L1782.6099 719.5987 L1660.6833 719.5987 Z" stroke="none" clip-path="url(#clipPath2)"/>
    </g>
    <g text-rendering="geometricPrecision" stroke-miterlimit="1.45" shape-rendering="geometricPrecision" transform="matrix(1,0,0,1,-75,34)" stroke-linecap="butt">
      <path fill="none" d="M1660.6833 659.4248 L1782.6099 659.4248 L1782.6099 719.5987 L1660.6833 719.5987 Z" clip-path="url(#clipPath2)"/>
      <text x="1681.2843" xml:space="preserve" y="679.5245" clip-path="url(#clipPath2)" font-family="sans-serif" stroke="none">Add student to </text>
      <text x="1676.6173" xml:space="preserve" y="694.2256" clip-path="url(#clipPath2)" font-family="sans-serif" stroke="none">noAllocated2 for </text>
      <text x="1696.2931" xml:space="preserve" y="708.9268" clip-path="url(#clipPath2)" font-family="sans-serif" stroke="none">4th round</text>
    </g>
    <g fill="url(#linearGradient16)" text-rendering="geometricPrecision" shape-rendering="geometricPrecision" transform="matrix(1,0,0,1,-75,34)" stroke="url(#linearGradient16)">
      <rect x="1753.053" y="190.6807" clip-path="url(#clipPath2)" width="107.5213" rx="20" ry="20" height="40" stroke="none"/>
    </g>
    <g text-rendering="geometricPrecision" stroke-miterlimit="1.45" shape-rendering="geometricPrecision" transform="matrix(1,0,0,1,-75,34)" stroke-linecap="butt">
      <rect x="1753.053" y="190.6807" clip-path="url(#clipPath2)" fill="none" width="107.5213" rx="20" ry="20" height="40"/>
      <text x="1782.462" xml:space="preserve" y="208.044" clip-path="url(#clipPath2)" font-family="sans-serif" stroke="none">Round 3 </text>
      <text x="1796.1378" xml:space="preserve" y="222.7451" clip-path="url(#clipPath2)" font-family="sans-serif" stroke="none">End</text>
    </g>
    <g fill="url(#linearGradient17)" text-rendering="geometricPrecision" shape-rendering="geometricPrecision" transform="matrix(1,0,0,1,-75,34)" stroke="url(#linearGradient17)">
      <path d="M1504.2919 757.4112 L1603.2146 757.4112 L1603.2146 797.4112 L1504.2919 797.4112 Z" stroke="none" clip-path="url(#clipPath2)"/>
    </g>
    <g text-rendering="geometricPrecision" stroke-miterlimit="1.45" shape-rendering="geometricPrecision" transform="matrix(1,0,0,1,-75,34)" stroke-linecap="butt">
      <path fill="none" d="M1504.2919 757.4112 L1603.2146 757.4112 L1603.2146 797.4112 L1504.2919 797.4112 Z" clip-path="url(#clipPath2)"/>
      <text x="1523.7385" xml:space="preserve" y="774.7745" clip-path="url(#clipPath2)" font-family="sans-serif" stroke="none">decrement </text>
      <text x="1514.7297" xml:space="preserve" y="789.4756" clip-path="url(#clipPath2)" font-family="sans-serif" stroke="none">allocated sport</text>
    </g>
    <g fill="url(#linearGradient18)" text-rendering="geometricPrecision" shape-rendering="geometricPrecision" transform="matrix(1,0,0,1,-75,34)" stroke="url(#linearGradient18)">
      <path d="M1504.2919 827.4112 L1603.2146 827.4112 L1603.2146 867.4112 L1504.2919 867.4112 Z" stroke="none" clip-path="url(#clipPath2)"/>
    </g>
    <g text-rendering="geometricPrecision" stroke-miterlimit="1.45" shape-rendering="geometricPrecision" transform="matrix(1,0,0,1,-75,34)" stroke-linecap="butt">
      <path fill="none" d="M1504.2919 827.4112 L1603.2146 827.4112 L1603.2146 867.4112 L1504.2919 867.4112 Z" clip-path="url(#clipPath2)"/>
      <text x="1513.7249" xml:space="preserve" y="844.7745" clip-path="url(#clipPath2)" font-family="sans-serif" stroke="none">Add student in </text>
      <text x="1511.7297" xml:space="preserve" y="859.4756" clip-path="url(#clipPath2)" font-family="sans-serif" stroke="none">allocated vector</text>
    </g>
    <g fill="url(#linearGradient19)" text-rendering="geometricPrecision" shape-rendering="geometricPrecision" transform="matrix(1,0,0,1,-75,34)" stroke="url(#linearGradient19)">
      <path d="M1334.1404 562.8682 L1433.063 562.8682 L1433.063 602.8682 L1334.1404 602.8682 Z" stroke="none" clip-path="url(#clipPath2)"/>
    </g>
    <g text-rendering="geometricPrecision" stroke-miterlimit="1.45" shape-rendering="geometricPrecision" transform="matrix(1,0,0,1,-75,34)" stroke-linecap="butt">
      <path fill="none" d="M1334.1404 562.8682 L1433.063 562.8682 L1433.063 602.8682 L1334.1404 602.8682 Z" clip-path="url(#clipPath2)"/>
      <text x="1349.9161" xml:space="preserve" y="587.582" clip-path="url(#clipPath2)" font-family="sans-serif" stroke="none">Next student</text>
    </g>
    <g fill="url(#linearGradient20)" text-rendering="geometricPrecision" shape-rendering="geometricPrecision" transform="matrix(1,0,0,1,-75,34)" stroke="url(#linearGradient20)">
      <path d="M697.5391 558.7808 L767.8786 611.4308 L697.5391 664.0808 L627.1995 611.4308 Z" stroke="none" clip-path="url(#clipPath2)"/>
    </g>
    <g text-rendering="geometricPrecision" stroke-miterlimit="1.45" shape-rendering="geometricPrecision" transform="matrix(1,0,0,1,-75,34)" stroke-linecap="butt">
      <path fill="none" d="M697.5391 558.7808 L767.8786 611.4308 L697.5391 664.0808 L627.1995 611.4308 Z" clip-path="url(#clipPath2)"/>
      <text x="647.5146" xml:space="preserve" y="601.4435" clip-path="url(#clipPath2)" font-family="sans-serif" stroke="none">sport has vacancy </text>
      <text x="689.5352" xml:space="preserve" y="616.1447" clip-path="url(#clipPath2)" font-family="sans-serif" stroke="none">&amp;&amp;</text>
      <text x="658.1846" xml:space="preserve" y="630.8458" clip-path="url(#clipPath2)" font-family="sans-serif" stroke="none">no win record?</text>
    </g>
    <g fill="url(#linearGradient21)" text-rendering="geometricPrecision" shape-rendering="geometricPrecision" transform="matrix(1,0,0,1,-75,34)" stroke="url(#linearGradient21)">
      <path d="M646.5522 793.8298 L748.5259 793.8298 L748.5259 844.0037 L646.5522 844.0037 Z" stroke="none" clip-path="url(#clipPath2)"/>
    </g>
    <g text-rendering="geometricPrecision" stroke-miterlimit="1.45" shape-rendering="geometricPrecision" transform="matrix(1,0,0,1,-75,34)" stroke-linecap="butt">
      <path fill="none" d="M646.5522 793.8298 L748.5259 793.8298 L748.5259 844.0037 L646.5522 844.0037 Z" clip-path="url(#clipPath2)"/>
      <text x="659.5146" xml:space="preserve" y="816.28" clip-path="url(#clipPath2)" font-family="sans-serif" stroke="none">to be sorted in</text>
      <text x="658.1963" xml:space="preserve" y="830.9812" clip-path="url(#clipPath2)" font-family="sans-serif" stroke="none"> terms of GPA.</text>
    </g>
    <g fill="url(#linearGradient22)" text-rendering="geometricPrecision" shape-rendering="geometricPrecision" transform="matrix(1,0,0,1,-75,34)" stroke="url(#linearGradient22)">
      <path d="M241.8396 452.7432 L340.7623 452.7432 L340.7623 492.7432 L241.8396 492.7432 Z" stroke="none" clip-path="url(#clipPath2)"/>
    </g>
    <g text-rendering="geometricPrecision" stroke-miterlimit="1.45" shape-rendering="geometricPrecision" transform="matrix(1,0,0,1,-75,34)" stroke-linecap="butt">
      <path fill="none" d="M241.8396 452.7432 L340.7623 452.7432 L340.7623 492.7432 L241.8396 492.7432 Z" clip-path="url(#clipPath2)"/>
      <text x="257.6154" xml:space="preserve" y="477.4571" clip-path="url(#clipPath2)" font-family="sans-serif" stroke="none">Next student</text>
    </g>
    <g fill="url(#linearGradient23)" text-rendering="geometricPrecision" shape-rendering="geometricPrecision" transform="matrix(1,0,0,1,-75,34)" stroke="url(#linearGradient23)">
      <path d="M430.0186 784.0422 L541.4658 784.0422 L541.4658 829.8297 L430.0186 829.8297 Z" stroke="none" clip-path="url(#clipPath2)"/>
    </g>
    <g text-rendering="geometricPrecision" stroke-miterlimit="1.45" shape-rendering="geometricPrecision" transform="matrix(1,0,0,1,-75,34)" stroke-linecap="butt">
      <path fill="none" d="M430.0186 784.0422 L541.4658 784.0422 L541.4658 829.8297 L430.0186 829.8297 Z" clip-path="url(#clipPath2)"/>
      <text x="455.7275" xml:space="preserve" y="804.2993" clip-path="url(#clipPath2)" font-family="sans-serif" stroke="none">decrement </text>
      <text x="446.7188" xml:space="preserve" y="819.0004" clip-path="url(#clipPath2)" font-family="sans-serif" stroke="none">allocated sport</text>
    </g>
    <g fill="url(#linearGradient24)" text-rendering="geometricPrecision" shape-rendering="geometricPrecision" transform="matrix(1,0,0,1,-75,34)" stroke="url(#linearGradient24)">
      <path d="M430.0186 859.8297 L541.4658 859.8297 L541.4658 905.6172 L430.0186 905.6172 Z" stroke="none" clip-path="url(#clipPath2)"/>
    </g>
    <g text-rendering="geometricPrecision" stroke-miterlimit="1.45" shape-rendering="geometricPrecision" transform="matrix(1,0,0,1,-75,34)" stroke-linecap="butt">
      <path fill="none" d="M430.0186 859.8297 L541.4658 859.8297 L541.4658 905.6172 L430.0186 905.6172 Z" clip-path="url(#clipPath2)"/>
      <text x="452.0508" xml:space="preserve" y="880.0867" clip-path="url(#clipPath2)" font-family="sans-serif" stroke="none">Add student </text>
      <text x="455.3877" xml:space="preserve" y="894.7879" clip-path="url(#clipPath2)" font-family="sans-serif" stroke="none">in allocated</text>
    </g>
    <g fill="url(#linearGradient25)" text-rendering="geometricPrecision" shape-rendering="geometricPrecision" transform="matrix(1,0,0,1,-75,34)" stroke="url(#linearGradient25)">
      <path d="M1205.2177 562.8682 L1304.1404 562.8682 L1304.1404 602.8682 L1205.2177 602.8682 Z" stroke="none" clip-path="url(#clipPath2)"/>
    </g>
    <g text-rendering="geometricPrecision" stroke-miterlimit="1.45" shape-rendering="geometricPrecision" transform="matrix(1,0,0,1,-75,34)" stroke-linecap="butt">
      <path fill="none" d="M1205.2177 562.8682 L1304.1404 562.8682 L1304.1404 602.8682 L1205.2177 602.8682 Z" clip-path="url(#clipPath2)"/>
      <text x="1227.3362" xml:space="preserve" y="587.582" clip-path="url(#clipPath2)" font-family="sans-serif" stroke="none">Next sport</text>
    </g>
    <g fill="url(#linearGradient26)" text-rendering="geometricPrecision" shape-rendering="geometricPrecision" transform="matrix(1,0,0,1,-75,34)" stroke="url(#linearGradient26)">
      <path d="M90.2492 452.7432 L189.1719 452.7432 L189.1719 492.7432 L90.2492 492.7432 Z" stroke="none" clip-path="url(#clipPath2)"/>
    </g>
    <g text-rendering="geometricPrecision" stroke-miterlimit="1.45" shape-rendering="geometricPrecision" transform="matrix(1,0,0,1,-75,34)" stroke-linecap="butt">
      <path fill="none" d="M90.2492 452.7432 L189.1719 452.7432 L189.1719 492.7432 L90.2492 492.7432 Z" clip-path="url(#clipPath2)"/>
      <text x="112.3677" xml:space="preserve" y="477.4571" clip-path="url(#clipPath2)" font-family="sans-serif" stroke="none">Next sport</text>
    </g>
    <g text-rendering="geometricPrecision" stroke-miterlimit="1.45" shape-rendering="geometricPrecision" transform="matrix(1,0,0,1,-75,34)" stroke-linecap="butt">
      <path fill="none" d="M485.7422 256.9176 L485.7422 295.9905" clip-path="url(#clipPath2)"/>
    </g>
    <g text-rendering="geometricPrecision" stroke-miterlimit="1.45" shape-rendering="geometricPrecision" transform="matrix(1,0,0,1,-75,34)" stroke-linecap="butt">
      <path d="M485.7422 303.9905 L490.7422 291.9905 L485.7422 294.9905 L480.7422 291.9905 Z" stroke="none" clip-path="url(#clipPath2)"/>
      <text x="488.4063" xml:space="preserve" y="285.1758" clip-path="url(#clipPath2)" font-family="sans-serif" stroke="none">Yes</text>
      <path fill="none" d="M485.7422 396.4624 L485.7422 427.0088" clip-path="url(#clipPath2)"/>
      <path d="M485.7422 435.0088 L490.7422 423.0088 L485.7422 426.0088 L480.7422 423.0088 Z" clip-path="url(#clipPath2)" stroke="none"/>
      <text x="490.9063" xml:space="preserve" y="415.7877" clip-path="url(#clipPath2)" font-family="sans-serif" stroke="none">Yes</text>
      <path fill="none" d="M485.7422 527.4766 L485.7422 554.4119" clip-path="url(#clipPath2)"/>
      <path d="M485.7422 562.4119 L490.7422 550.4119 L485.7422 553.4119 L480.7422 550.4119 Z" clip-path="url(#clipPath2)" stroke="none"/>
      <text x="489.6563" xml:space="preserve" y="546.5707" clip-path="url(#clipPath2)" font-family="sans-serif" stroke="none">Yes</text>
      <path fill="none" d="M485.7422 667.7083 L485.7422 694.5848" clip-path="url(#clipPath2)"/>
      <path d="M485.7422 702.5848 L490.7422 690.5848 L485.7422 693.5848 L480.7422 690.5848 Z" clip-path="url(#clipPath2)" stroke="none"/>
      <text x="488.4063" xml:space="preserve" y="686.7645" clip-path="url(#clipPath2)" font-family="sans-serif" stroke="none">Yes</text>
      <path fill="none" d="M550.1911 210.6807 L1474.6482 210.6807" clip-path="url(#clipPath2)"/>
      <path d="M1482.6482 210.6807 L1470.6482 205.6807 L1473.6482 210.6807 L1470.6482 215.6807 Z" clip-path="url(#clipPath2)" stroke="none"/>
      <text x="1008.7266" xml:space="preserve" y="209.109" clip-path="url(#clipPath2)" font-family="sans-serif" stroke="none">No</text>
      <path fill="none" d="M1553.7532 256.9176 L1553.7532 295.9905" clip-path="url(#clipPath2)"/>
      <path d="M1553.7532 303.9905 L1558.7532 291.9905 L1553.7532 294.9905 L1548.7532 291.9905 Z" clip-path="url(#clipPath2)" stroke="none"/>
      <text x="1573.4143" xml:space="preserve" y="275.9951" clip-path="url(#clipPath2)" font-family="sans-serif" stroke="none">Yes</text>
      <path fill="none" d="M1553.7532 396.5097 L1553.7532 418.4745" clip-path="url(#clipPath2)"/>
      <path d="M1553.7532 426.4745 L1558.7532 414.4745 L1553.7532 417.4745 L1548.7532 414.4745 Z" clip-path="url(#clipPath2)" stroke="none"/>
      <text x="1573.4143" xml:space="preserve" y="415.5576" clip-path="url(#clipPath2)" font-family="sans-serif" stroke="none">Yes</text>
      <path fill="none" d="M1553.7532 519.0096 L1553.7532 540.9745" clip-path="url(#clipPath2)"/>
      <path d="M1553.7532 548.9745 L1558.7532 536.9745 L1553.7532 539.9745 L1548.7532 536.9745 Z" clip-path="url(#clipPath2)" stroke="none"/>
      <text x="1573.4143" xml:space="preserve" y="538.707" clip-path="url(#clipPath2)" font-family="sans-serif" stroke="none">Yes</text>
      <path fill="none" d="M485.7422 24.4843 L485.7422 60.4158" clip-path="url(#clipPath2)"/>
      <path d="M485.7422 68.4158 L490.7422 56.4158 L485.7422 59.4158 L480.7422 56.4158 Z" clip-path="url(#clipPath2)" stroke="none"/>
      <path fill="none" d="M485.7422 117.3736 L485.7422 156.4372" clip-path="url(#clipPath2)"/>
      <path d="M485.7422 164.4372 L490.7422 152.4372 L485.7422 155.4372 L480.7422 152.4372 Z" clip-path="url(#clipPath2)" stroke="none"/>
      <path fill="none" d="M1553.7532 641.4708 L1553.7532 679.4034" clip-path="url(#clipPath2)"/>
      <path d="M1553.7532 687.4034 L1558.7532 675.4034 L1553.7532 678.4034 L1548.7532 675.4034 Z" clip-path="url(#clipPath2)" stroke="none"/>
      <text x="1556.7692" xml:space="preserve" y="665.9225" clip-path="url(#clipPath2)" font-family="sans-serif" stroke="none">Yes</text>
      <path fill="none" d="M1618.1478 595.2432 L1721.6466 595.2432 L1721.6466 651.4545" clip-path="url(#clipPath2)"/>
      <path d="M1721.6466 659.4545 L1726.6466 647.4545 L1721.6466 650.4545 L1716.6466 647.4545 Z" clip-path="url(#clipPath2)" stroke="none"/>
      <text x="1690.082" xml:space="preserve" y="593.3959" clip-path="url(#clipPath2)" font-family="sans-serif" stroke="none">No</text>
      <path fill="none" d="M1624.8955 210.6807 L1745.0288 210.6807" clip-path="url(#clipPath2)"/>
      <path d="M1753.0288 210.6807 L1741.0288 205.6807 L1744.0288 210.6807 L1741.0288 215.6807 Z" clip-path="url(#clipPath2)" stroke="none"/>
      <text x="1681.2994" xml:space="preserve" y="209.3783" clip-path="url(#clipPath2)" font-family="sans-serif" stroke="none">No</text>
      <path fill="none" d="M1553.7532 727.4063 L1553.7532 749.4385" clip-path="url(#clipPath2)"/>
      <path d="M1553.7532 757.4385 L1558.7532 745.4385 L1553.7532 748.4385 L1548.7532 745.4385 Z" clip-path="url(#clipPath2)" stroke="none"/>
      <path fill="none" d="M1553.7532 797.4063 L1553.7532 819.4385" clip-path="url(#clipPath2)"/>
      <path d="M1553.7532 827.4385 L1558.7532 815.4385 L1553.7532 818.4385 L1548.7532 815.4385 Z" clip-path="url(#clipPath2)" stroke="none"/>
      <path fill="none" d="M1721.6466 719.5956 L1721.6466 943.3188 L1383.6017 943.3188 L1383.6017 610.8883" clip-path="url(#clipPath2)"/>
      <path d="M1383.6017 602.8883 L1378.6017 614.8883 L1383.6017 611.8883 L1388.6017 614.8883 Z" clip-path="url(#clipPath2)" stroke="none"/>
      <path fill="none" d="M1553.7532 867.4075 L1553.7532 943.3188 L1383.6017 943.3188 L1383.6017 610.8883" clip-path="url(#clipPath2)"/>
      <path d="M1383.6017 602.8883 L1378.6017 614.8883 L1383.6017 611.8883 L1388.6017 614.8883 Z" clip-path="url(#clipPath2)" stroke="none"/>
      <path fill="none" d="M1621.9054 350.2432 L1907.333 350.2432 L1907.333 943.3188 L1383.6017 943.3188 L1383.6017 610.8883" clip-path="url(#clipPath2)"/>
      <path d="M1383.6017 602.8883 L1378.6017 614.8883 L1383.6017 611.8883 L1388.6017 614.8883 Z" clip-path="url(#clipPath2)" stroke="none"/>
      <text x="1764.2787" xml:space="preserve" y="348.9641" clip-path="url(#clipPath2)" font-family="sans-serif" stroke="none">No</text>
      <path fill="none" d="M1383.6017 562.8322 L1383.6017 210.6807 L1474.5936 210.6807" clip-path="url(#clipPath2)"/>
      <path d="M1482.5936 210.6807 L1470.5936 205.6807 L1473.5936 210.6807 L1470.5936 215.6807 Z" clip-path="url(#clipPath2)" stroke="none"/>
      <path fill="none" d="M561.5206 613.7551 L620.7672 612.7427" clip-path="url(#clipPath2)"/>
      <path d="M628.7661 612.606 L616.6824 607.8117 L619.7674 612.7598 L616.8532 617.8103 Z" clip-path="url(#clipPath2)" stroke="none"/>
      <text x="587.6569" xml:space="preserve" y="611.8843" clip-path="url(#clipPath2)" font-family="sans-serif" stroke="none">No</text>
      <path fill="none" d="M697.5391 664.0815 L697.5391 695.899" clip-path="url(#clipPath2)"/>
      <path d="M697.5391 703.899 L702.5391 691.899 L697.5391 694.899 L692.5391 691.899 Z" clip-path="url(#clipPath2)" stroke="none"/>
      <text x="700.3448" xml:space="preserve" y="683.1453" clip-path="url(#clipPath2)" font-family="sans-serif" stroke="none">Yes</text>
      <path fill="none" d="M767.8651 611.4308 L876.5668 611.4308 L876.5668 723.6661" clip-path="url(#clipPath2)"/>
      <path d="M876.5668 731.6661 L881.5668 719.6661 L876.5668 722.6661 L871.5668 719.6661 Z" clip-path="url(#clipPath2)" stroke="none"/>
      <text x="821.8878" xml:space="preserve" y="608.2432" clip-path="url(#clipPath2)" font-family="sans-serif" stroke="none">No</text>
      <path fill="none" d="M697.5391 754.0373 L697.5391 785.8583" clip-path="url(#clipPath2)"/>
      <path d="M697.5391 793.8583 L702.5391 781.8583 L697.5391 784.8583 L692.5391 781.8583 Z" clip-path="url(#clipPath2)" stroke="none"/>
      <path fill="none" d="M876.5668 794.1815 L876.5668 946.1175 L291.3009 946.1175 L291.3009 500.7657" clip-path="url(#clipPath2)"/>
      <path d="M291.3009 492.7657 L286.3009 504.7657 L291.3009 501.7657 L296.3009 504.7657 Z" clip-path="url(#clipPath2)" stroke="none"/>
      <path fill="none" d="M697.5391 844.0057 L697.5391 946.2581 L291.3009 946.1175 L291.3009 500.7657" clip-path="url(#clipPath2)"/>
      <path d="M291.3009 492.7657 L286.3009 504.7657 L291.3009 501.7657 L296.3009 504.7657 Z" clip-path="url(#clipPath2)" stroke="none"/>
      <path fill="none" d="M547.7256 350.2432 L969.1009 350.2432 L969.1009 946.1175 L291.3009 946.1175 L291.3009 500.7385" clip-path="url(#clipPath2)"/>
      <path d="M291.3009 492.7385 L286.3009 504.7385 L291.3009 501.7385 L296.3009 504.7385 Z" clip-path="url(#clipPath2)" stroke="none"/>
      <text x="758.0734" xml:space="preserve" y="347.3588" clip-path="url(#clipPath2)" font-family="sans-serif" stroke="none">No</text>
      <path fill="none" d="M291.3009 452.7494 L291.3009 210.6807 L413.324 210.6807" clip-path="url(#clipPath2)"/>
      <path d="M421.324 210.6807 L409.324 205.6807 L412.324 210.6807 L409.324 215.6807 Z" clip-path="url(#clipPath2)" stroke="none"/>
      <path fill="none" d="M485.7422 752.7963 L485.7422 776.0165" clip-path="url(#clipPath2)"/>
      <path d="M485.7422 784.0165 L490.7422 772.0165 L485.7422 775.0165 L480.7422 772.0165 Z" clip-path="url(#clipPath2)" stroke="none"/>
      <path fill="none" d="M485.7422 829.8425 L485.7422 851.8204" clip-path="url(#clipPath2)"/>
      <path d="M485.7422 859.8204 L490.7422 847.8204 L485.7422 850.8204 L480.7422 847.8204 Z" clip-path="url(#clipPath2)" stroke="none"/>
      <path fill="none" d="M485.7422 905.5986 L485.7422 946.1175 L291.3009 946.1175 L291.3009 500.7657" clip-path="url(#clipPath2)"/>
      <path d="M291.3009 492.7657 L286.3009 504.7657 L291.3009 501.7657 L296.3009 504.7657 Z" clip-path="url(#clipPath2)" stroke="none"/>
      <path fill="none" d="M1618.1896 472.7432 L1823.7599 472.7432 L1823.7599 1008.4973 L1254.679 1008.4973 L1254.679 610.8455" clip-path="url(#clipPath2)"/>
      <path d="M1254.679 602.8455 L1249.679 614.8455 L1254.679 611.8455 L1259.679 614.8455 Z" clip-path="url(#clipPath2)" stroke="none"/>
      <text x="1720.6366" xml:space="preserve" y="468.2899" clip-path="url(#clipPath2)" font-family="sans-serif" stroke="none">No</text>
      <path fill="none" d="M1254.679 562.8486 L1254.679 350.2432 L1477.5927 350.2432" clip-path="url(#clipPath2)"/>
      <path d="M1485.5927 350.2432 L1473.5927 345.2432 L1476.5927 350.2432 L1473.5927 355.2432 Z" clip-path="url(#clipPath2)" stroke="none"/>
      <path fill="none" d="M556.0898 481.2563 L1044.9733 481.2563 L1044.9733 1005.0886 L139.7105 1005.0886 L139.7105 500.7256" clip-path="url(#clipPath2)"/>
      <path d="M139.7105 492.7256 L134.7105 504.7256 L139.7105 501.7256 L144.7105 504.7256 Z" clip-path="url(#clipPath2)" stroke="none"/>
      <path fill="none" d="M139.7105 452.7494 L139.7105 210.6807 L413.2933 210.6807" clip-path="url(#clipPath2)"/>
      <path d="M421.2933 210.6807 L409.2933 205.6807 L412.2933 210.6807 L409.2933 215.6807 Z" clip-path="url(#clipPath2)" stroke="none"/>
    </g>
  </g>
</svg>
